# xmcd
#
# Track frame offsets:
# 150
# 14197
# 31145
# 45399
# 65501
# 83019
# 100803
# 123551
# 142658
#
# Disc length: 2075 seconds
#
# Revision: 0
# Processed by: cddbd v1.5.1PL2 Copyright (c) Steve Scherf et al.
# Submitted via: Audion 3.0.2 (http://www.panic.com/audion/)
#
DISCID=6d081909
DTITLE=varios - varios
DYEAR=1900
DGENRE=
TTITLE0=1
TTITLE1=camila
TTITLE2=3
TTITLE3=4
TTITLE4=motel
TTITLE5=6
TTITLE6=7
TTITLE7=8
TTITLE8=9
EXTD=
EXTT0=
EXTT1=
EXTT2=
EXTT3=
EXTT4=
EXTT5=
EXTT6=
EXTT7=
EXTT8=
PLAYORDER=
